<?xml version="1.0" encoding="UTF-8"?>
<svg version="1.1" xmlns="http://www.w3.org/2000/svg" width="3375" height="3375">
<path d="M0 0 C0.66 0.33 1.32 0.66 2 1 C1.23707642 1.75506836 1.23707642 1.75506836 0.45874023 2.52539062 C-1.88440728 4.84751978 -4.22346602 7.1737277 -6.5625 9.5 C-7.76229492 10.68722656 -7.76229492 10.68722656 -8.98632812 11.8984375 C-12.59857692 15.49594242 -16.1456213 19.09745975 -19.46484375 22.96875 C-24.50559517 28.83488334 -30.111183 34.15429968 -35.6171875 39.578125 C-39.36541938 43.29217847 -43.06413637 46.99283352 -46.5 51 C-51.52425481 56.85966955 -57.12241912 62.16536808 -62.6171875 67.578125 C-66.36541938 71.29217847 -70.06413637 74.99283352 -73.5 79 C-78.52425481 84.85966955 -84.12241912 90.16536808 -89.6171875 95.578125 C-93.35499957 99.28185368 -97.0447487 102.97071306 -100.46875 106.96875 C-105.69884851 113.06849018 -111.54415017 118.58595852 -117.26171875 124.22265625 C-121.75090507 128.67297515 -126.07462624 133.16277196 -130.18554688 137.96289062 C-134.73797641 143.07396059 -139.74324674 147.77692963 -144.6171875 152.578125 C-148.36541938 156.29217847 -152.06413637 159.99283352 -155.5 164 C-160.52425481 169.85966955 -166.12241912 175.16536808 -171.6171875 180.578125 C-175.35499957 184.28185368 -179.0447487 187.97071306 -182.46875 191.96875 C-187.69884851 198.06849018 -193.54415017 203.58595852 -199.26171875 209.22265625 C-203.75090507 213.67297515 -208.07462624 218.16277196 -212.18554688 222.96289062 C-216.73797641 228.07396059 -221.74324674 232.77692963 -226.6171875 237.578125 C-230.36541938 241.29217847 -234.06413637 244.99283352 -237.5 249 C-242.52425481 254.85966955 -248.12241912 260.16536808 -253.6171875 265.578125 C-257.36541938 269.29217847 -261.06413637 272.99283352 -264.5 277 C-269.52425481 282.85966955 -275.12241912 288.16536808 -280.6171875 293.578125 C-284.35499957 297.28185368 -288.0447487 300.97071306 -291.46875 304.96875 C-296.69884851 311.06849018 -302.54415017 316.58595852 -308.26171875 322.22265625 C-312.75090507 326.67297515 -317.07462624 331.16277196 -321.18554688 335.96289062 C-325.73797641 341.07396059 -330.74324674 345.77692963 -335.6171875 350.578125 C-339.36541938 354.29217847 -343.06413637 357.99283352 -346.5 362 C-351.52425481 367.85966955 -357.12241912 373.16536808 -362.6171875 378.578125 C-366.35499957 382.28185368 -370.0447487 385.97071306 -373.46875 389.96875 C-378.69884851 396.06849018 -384.54415017 401.58595852 -390.26171875 407.22265625 C-394.75090507 411.67297515 -399.07462624 416.16277196 -403.18554688 420.96289062 C-407.73797641 426.07396059 -412.74324674 430.77692963 -417.6171875 435.578125 C-421.36541938 439.29217847 -425.06413637 442.99283352 -428.5 447 C-433.52425481 452.85966955 -439.12241912 458.16536808 -444.6171875 463.578125 C-448.36541938 467.29217847 -452.06413637 470.99283352 -455.5 475 C-460.52425481 480.85966955 -466.12241912 486.16536808 -471.6171875 491.578125 C-475.35499957 495.28185368 -479.0447487 498.97071306 -482.46875 502.96875 C-487.69884851 509.06849018 -493.54415017 514.58595852 -499.26171875 520.22265625 C-503.75090507 524.67297515 -508.07462624 529.16277196 -512.18554688 533.96289062 C-516.73797641 539.07396059 -521.74324674 543.77692963 -526.6171875 548.578125 C-530.36541938 552.29217847 -534.06413637 555.99283352 -537.5 560 C-542.52425481 565.85966955 -548.12241912 571.16536808 -553.6171875 576.578125 C-557.35499957 580.28185368 -561.0447487 583.97071306 -564.46875 587.96875 C-569.69884851 594.06849018 -575.54415017 599.58595852 -581.26171875 605.22265625 C-585.75090507 609.67297515 -590.07462624 614.16277196 -594.18554688 618.96289062 C-598.73797641 624.07396059 -603.74324674 628.77692963 -608.6171875 633.578125 C-612.36541938 637.29217847 -616.06413637 640.99283352 -619.5 645 C-624.52425481 650.85966955 -630.12241912 656.16536808 -635.6171875 661.578125 C-639.36541938 665.29217847 -643.06413637 668.99283352 -646.5 673 C-651.52425481 678.85966955 -657.12241912 684.16536808 -662.6171875 689.578125 C-666.35499957 693.28185368 -670.0447487 696.97071306 -673.46875 700.96875 C-678.69884851 707.06849018 -684.54415017 712.58595852 -690.26171875 718.22265625 C-694.75090507 722.67297515 -699.07462624 727.16277196 -703.18554688 731.96289062 C-707.73797641 737.07396059 -712.74324674 741.77692963 -717.6171875 746.578125 C-721.36541938 750.29217847 -725.06413637 753.99283352 -728.5 758 C-733.52425481 763.85966955 -739.12241912 769.16536808 -744.6171875 774.578125 C-748.35499957 778.28185368 -752.0447487 781.97071306 -755.46875 785.96875 C-760.69884851 792.06849018 -766.54415017 797.58595852 -772.26171875 803.22265625 C-776.82110095 807.74256328 -781.22883839 812.30147355 -785.40478516 817.17773438 C-787.95003861 820.0852599 -790.68392717 822.79134115 -793.4375 825.5 C-793.97826172 826.03625 -794.51902344 826.5725 -795.07617188 827.125 C-796.38176617 828.41904036 -797.69052996 829.70988174 -799 831 C-801.73088177 828.40361012 -803.89443294 825.86809326 -805.890625 822.67578125 C-806.42695557 821.82483887 -806.96328613 820.97389648 -807.51586914 820.09716797 C-808.08813232 819.17822754 -808.66039551 818.25928711 -809.25 817.3125 C-810.50348453 815.32134904 -811.75740784 813.33047424 -813.01171875 811.33984375 C-813.66446777 810.30069824 -814.3172168 809.26155273 -814.98974609 808.19091797 C-818.32146883 802.90240495 -821.69145191 797.63850212 -825.0625 792.375 C-825.73700195 791.32094971 -826.41150391 790.26689941 -827.10644531 789.1809082 C-831.72815623 781.96548241 -836.38673488 774.77493459 -841.06665039 767.59716797 C-845.41419414 760.92127449 -849.71115758 754.21372318 -854 747.5 C-864.18268624 731.56600422 -874.46123301 715.70109755 -885 700 C-890.30116687 704.42976662 -895.24255925 709.09947822 -900.11914062 713.98974609 C-900.89895798 714.76781113 -901.67877533 715.54587616 -902.48222351 716.34751892 C-905.04274239 718.90365995 -907.59961322 721.46341406 -910.15625 724.0234375 C-911.94536993 725.81188315 -913.73463822 727.60018039 -915.52404785 729.38833618 C-919.26782296 733.13063977 -923.00983872 736.87469035 -926.75048828 740.62011719 C-931.05717463 744.93224063 -935.36744586 749.24075552 -939.67960405 753.54740655 C-943.84925121 757.71194426 -948.01605303 761.87931841 -952.1816864 766.04787064 C-953.94470437 767.81155304 -955.70845817 769.57450023 -957.47297668 771.33668137 C-959.94470706 773.8058557 -962.41318122 776.2782416 -964.88085938 778.75146484 C-965.60210495 779.47068619 -966.32335052 780.18990753 -967.06645203 780.93092346 C-970.31037397 784.18827651 -973.4583498 787.47888331 -976.45983887 790.96182251 C-980.35430481 795.47225921 -984.53574511 799.66115364 -988.76171875 803.859375 C-989.6098111 804.70600708 -990.45790344 805.55263916 -991.33169556 806.42492676 C-993.63572578 808.72418921 -995.94193269 811.02124166 -998.24899673 813.31745911 C-1000.67682877 815.73522816 -1003.10135471 818.15630749 -1005.52612305 820.57714844 C-1012.20321511 827.24225628 -1018.8853366 833.90231428 -1025.56752014 840.56231689 C-1031.69748906 846.67204267 -1037.82635868 852.78286085 -1043.95117283 858.89775467 C-1046.35810175 861.3005431 -1048.76608563 863.70225382 -1051.17660522 866.10144043 C-1053.86609403 868.7789096 -1056.55248465 871.45945287 -1059.23828125 874.140625 C-1060.02498199 874.92215942 -1060.81168274 875.70369385 -1061.6222229 876.50891113 C-1065.030693 879.9170565 -1068.35267055 883.34815998 -1071.5 887 C-1075.37845408 891.50016247 -1079.54871197 895.67403534 -1083.76171875 899.859375 C-1084.6098111 900.70600708 -1085.45790344 901.55263916 -1086.33169556 902.42492676 C-1088.63572578 904.72418921 -1090.94193269 907.02124166 -1093.24899673 909.31745911 C-1095.67682877 911.73522816 -1098.10135471 914.15630749 -1100.52612305 916.57714844 C-1107.20321511 923.24225628 -1113.8853366 929.90231428 -1120.56752014 936.56231689 C-1126.69748906 942.67204267 -1132.82635868 948.78286085 -1138.95117283 954.89775467 C-1141.35810175 957.3005431 -1143.76608563 959.70225382 -1146.17660522 962.10144043 C-1148.86609403 964.7789096 -1151.55248465 967.45945287 -1154.23828125 970.140625 C-1155.02498199 970.92215942 -1155.81168274 971.70369385 -1156.6222229 972.50891113 C-1160.030693 975.9170565 -1163.35267055 979.34815998 -1166.5 983 C-1170.37845408 987.50016247 -1174.54871197 991.67403534 -1178.76171875 995.859375 C-1179.6098111 996.70600708 -1180.45790344 997.55263916 -1181.33169556 998.42492676 C-1183.63572578 1000.72418921 -1185.94193269 1003.02124166 -1188.24899673 1005.31745911 C-1190.67682877 1007.73522816 -1193.10135471 1010.15630749 -1195.52612305 1012.57714844 C-1202.20321511 1019.24225628 -1208.8853366 1025.90231428 -1215.56752014 1032.56231689 C-1221.69748906 1038.67204267 -1227.82635868 1044.78286085 -1233.95117283 1050.89775467 C-1236.35810175 1053.3005431 -1238.76608563 1055.70225382 -1241.17660522 1058.10144043 C-1243.86609403 1060.7789096 -1246.55248465 1063.45945287 -1249.23828125 1066.140625 C-1250.02498199 1066.92215942 -1250.81168274 1067.70369385 -1251.6222229 1068.50891113 C-1255.030693 1071.9170565 -1258.35267055 1075.34815998 -1261.5 1079 C-1265.37845408 1083.50016247 -1269.54871197 1087.67403534 -1273.76171875 1091.859375 C-1274.6098111 1092.70600708 -1275.45790344 1093.55263916 -1276.33169556 1094.42492676 C-1278.63572578 1096.72418921 -1280.94193269 1099.02124166 -1283.24899673 1101.31745911 C-1285.67682877 1103.73522816 -1288.10135471 1106.15630749 -1290.52612305 1108.57714844 C-1297.20321511 1115.24225628 -1303.8853366 1121.90231428 -1310.56752014 1128.56231689 C-1316.69748906 1134.67204267 -1322.82635868 1140.78286085 -1328.95117283 1146.89775467 C-1331.35810175 1149.3005431 -1333.76608563 1151.70225382 -1336.17660522 1154.10144043 C-1338.86609403 1156.7789096 -1341.55248465 1159.45945287 -1344.23828125 1162.140625 C-1345.02498199 1162.92215942 -1345.81168274 1163.70369385 -1346.6222229 1164.50891113 C-1350.73578953 1168.62208586 -1354.66456155 1172.82691894 -1358.46103096 1177.23420715 C-1360.4373098 1179.50176352 -1362.52034599 1181.64034494 -1364.65014648 1183.76367188 C-1365.49048935 1184.60393921 -1366.33083221 1185.44420654 -1367.19664001 1186.30993652 C-1368.07920975 1187.18734497 -1368.96177948 1188.06475342 -1369.87109375 1188.96875 C-1370.793423 1189.88966431 -1371.71575226 1190.81057861 -1372.66603088 1191.75939941 C-1375.09188477 1194.18147554 -1377.52072852 1196.60053079 -1379.95025635 1199.0189209 C-1382.43939116 1201.49773837 -1384.92561895 1203.97946797 -1387.41210938 1206.4609375 C-1392.27193458 1211.31010924 -1397.13493178 1216.15608863 -1402 1221 C-1404.65745125 1218.38991971 -1406.87680976 1215.91882732 -1408.890625 1212.78125 C-1409.426875 1211.94634033 -1409.963125 1211.11143066 -1410.515625 1210.2512207 C-1411.08796875 1209.34331787 -1411.6603125 1208.43541504 -1412.25 1207.5 C-1413.16265625 1206.05596802 -1413.16265625 1206.05596802 -1414.09375 1204.58276367 C-1457.31819816 1135.51259937 -1486.89775823 1059.65228088 -1508 935 C-1508.11182617 933.98470215 -1508.22365234 932.9694043 -1508.33886719 931.92333984 C-1508.98032608 925.95493917 -1509.56683752 919.98725663 -1510 914 C-1510.08685059 912.8560376 -1510.17370117 911.7120752 -1510.26318359 910.53344727 C-1511.34362819 894.90181672 -1511.24574629 879.22363703 -1511.25 863.5625 C-1511.25044186 862.81654572 -1511.25088371 862.07059143 -1511.25133896 861.30203247 C-1511.25834188 838.73007246 -1510.9191018 816.41553992 -1508 794 C-1507.82074575 792.56712516 -1507.64205306 791.13417997 -1507.46386719 789.70117188 C-1501.93223271 745.69326794 -1491.99362515 703.04805499 -1478 661 C-1477.58492187 659.75202637 -1477.16984375 658.50405273 -1476.7421875 657.21826172 C-1464.40282707 620.56339546 -1448.00080612 584.78725102 -1428.41992188 551.43115234 C-1427.148083 549.25354376 -1425.90397057 547.06352871 -1424.671875 544.86328125 C-1409.81289587 518.58309118 -1391.91670212 493.49308316 -1373 470 C-1372.26523438 469.0821875 -1371.53046875 468.164375 -1370.7734375 467.21875 C-1358.92454565 452.56921098 -1346.475398 438.29658635 -1333.04296875 425.078125 C-1331.11669739 423.11870557 -1329.33464904 421.09848885 -1327.5625 419 C-1324.20719992 415.08806027 -1320.46772488 411.75051492 -1316.6015625 408.3515625 C-1313.98585868 405.9872176 -1311.5238714 403.52388242 -1309.0625 401 C-1304.84996926 396.73473022 -1300.39858389 392.95476718 -1295.71875 389.21484375 C-1293.06498647 387.05294156 -1290.52750859 384.80755136 -1288 382.5 C-1261.16449638 358.11561325 -1230.17929542 337.35603619 -1199 319 C-1198.17967285 318.5157959 -1197.3593457 318.0315918 -1196.51416016 317.53271484 C-1184.66219811 310.56820593 -1172.62584308 304.14499799 -1160.27246094 298.11865234 C-1158.19387641 297.09543852 -1156.12964819 296.04958252 -1154.0703125 294.98828125 C-1088.51930935 261.26733251 -1013.56249266 241.02580313 -940.30426025 234.21511841 C-938.66182072 234.06178548 -937.01989787 233.90287513 -935.37835693 233.74020386 C-916.27546023 231.87950553 -897.28469145 231.72108837 -878.1151123 231.80438232 C-874.91882347 231.81535281 -871.72257625 231.81484622 -868.52627182 231.81424427 C-865.42070318 231.81451615 -862.31516189 231.81999554 -859.20960236 231.82724571 C-857.7408697 231.83040434 -856.272134 231.83239314 -854.80339813 231.83313942 C-852.76703251 231.83531627 -850.73067884 231.84487241 -848.69433594 231.85473633 C-846.96663971 231.86045403 -846.96663971 231.86045403 -845.20404053 231.86628723 C-842.05743508 231.99760309 -839.09103325 232.41220528 -836 233 C-836 233.33 -836 233.66 -836 234 C-836.93231445 234.08975098 -837.86462891 234.17950195 -838.82519531 234.27197266 C-904.58617332 240.67731768 -968.89614713 254.8558202 -1029 283 C-1030.02351563 283.47405273 -1031.04703125 283.94810547 -1032.1015625 284.43652344 C-1063.45007891 298.99258084 -1092.69586324 316.20083901 -1121 336 C-1121.82725586 336.57814453 -1122.65451172 337.15628906 -1123.50683594 337.75195312 C-1132.3501335 343.96115279 -1140.89949842 350.36143068 -1149.0546875 357.453125 C-1151.84474743 359.86574976 -1154.68730781 362.19001653 -1157.5625 364.5 C-1163.00361331 368.92881316 -1168.13578386 373.63409686 -1173.26879883 378.41235352 C-1175.39257886 380.36002543 -1177.54993333 382.26849234 -1179.703125 384.18359375 C-1185.21154059 389.13390156 -1190.46310603 394.31530868 -1195.6875 399.5625 C-1196.58533203 400.45646484 -1197.48316406 401.35042969 -1198.40820312 402.27148438 C-1202.9491949 406.81912962 -1207.3551126 411.42188412 -1211.5402832 416.29956055 C-1213.39187406 418.45649821 -1215.32138597 420.53693363 -1217.25 422.625 C-1221.7992233 427.66686339 -1225.9690272 432.95182698 -1230.125 438.31640625 C-1232.01042835 440.74704191 -1233.92479527 443.14838467 -1235.875 445.52734375 C-1272.6719743 490.48980047 -1301.14191039 543.5177358 -1321 598 C-1321.22602905 598.62009949 -1321.45205811 599.24019897 -1321.68493652 599.87908936 C-1343.39060476 659.68724779 -1355.30547333 724.31977872 -1354 788 C-1353.98066406 789.24168945 -1353.96132812 790.48337891 -1353.94140625 791.76269531 C-1352.66383318 872.56041007 -1335.79260396 952.46802356 -1296 1035 C-1292.22238474 1030.63985529 -1289.54499011 1025.88691794 -1286.75 1020.875 C-1281.99989259 1012.45702231 -1277.13415407 1004.11643266 -1272.1875 995.8125 C-1266.82936477 986.80850459 -1261.53378757 977.77182336 -1256.3125 968.6875 C-1251.28145754 959.93553481 -1246.19931328 951.21735098 -1241.05175781 942.53344727 C-1236.53348554 934.91006155 -1232.04290401 927.27067635 -1227.5625 919.625 C-1227.20013245 919.00668304 -1226.83776489 918.38836609 -1226.4644165 917.75131226 C-1221.06506264 908.53689376 -1215.68017975 899.31409614 -1210.30224609 890.0871582 C-1203.61327496 878.61451895 -1196.89241067 867.1605909 -1190.17333984 855.70556641 C-1186.96765731 850.24015517 -1183.76362141 844.77377869 -1180.55947876 839.3074646 C-1178.78972162 836.28826922 -1177.01985522 833.26913789 -1175.25 830.25 C-1174.54166614 829.04166697 -1173.83333281 827.83333364 -1173.125 826.625 C-1171.70833333 824.20833333 -1170.29166667 821.79166667 -1168.875 819.375 C-1168.34908516 818.47785027 -1168.34908516 818.47785027 -1167.81254578 817.56257629 C-1167.10406194 816.35398742 -1166.39557602 815.14539978 -1165.68708801 813.93681335 C-1163.91854021 810.91989977 -1162.15002846 807.90296506 -1160.3815918 804.88598633 C-1157.16685549 799.40168127 -1153.95183523 793.91754356 -1150.73550415 788.43417358 C-1143.8115604 776.62982662 -1136.89125131 764.82347775 -1130 753 C-1122.74674861 740.55543043 -1115.46102122 728.12998798 -1108.17333984 715.70556641 C-1104.96765731 710.24015517 -1101.76362141 704.77377869 -1098.55947876 699.3074646 C-1096.78972162 696.28826922 -1095.01985522 693.26913789 -1093.25 690.25 C-1092.54166614 689.04166697 -1091.83333281 687.83333364 -1091.125 686.625 C-1089.70833333 684.20833333 -1088.29166667 681.79166667 -1086.875 679.375 C-1086.34908516 678.47785027 -1086.34908516 678.47785027 -1085.81254578 677.56257629 C-1085.10406194 676.35398742 -1084.39557602 675.14539978 -1083.68708801 673.93681335 C-1081.91854021 670.91989977 -1080.15002846 667.90296506 -1078.3815918 664.88598633 C-1075.16685549 659.40168127 -1071.95183523 653.91754356 -1068.73550415 648.43417358 C-1061.8115604 636.62982662 -1054.89125131 624.82347775 -1048 613 C-1040.74674861 600.55543043 -1033.46102122 588.12998798 -1026.17333984 575.70556641 C-1022.96765731 570.24015517 -1019.76362141 564.77377869 -1016.55947876 559.3074646 C-1014.78972162 556.28826922 -1013.01985522 553.26913789 -1011.25 550.25 C-1010.54166614 549.04166697 -1009.83333281 547.83333364 -1009.125 546.625 C-1007.70833333 544.20833333 -1006.29166667 541.79166667 -1004.875 539.375 C-1004.34908516 538.47785027 -1004.34908516 538.47785027 -1003.81254578 537.56257629 C-1003.10406194 536.35398742 -1002.39557602 535.14539978 -1001.68708801 533.93681335 C-999.91854021 530.91989977 -998.15002846 527.90296506 -996.3815918 524.88598633 C-993.16685549 519.40168127 -989.95183523 513.91754356 -986.73550415 508.43417358 C-979.8115604 496.62982662 -972.89125131 484.82347775 -966 473 C-958.74674861 460.55543043 -951.46102122 448.12998798 -944.17333984 435.70556641 C-942.02775582 432.04753137 -939.88289501 428.3890727 -937.73828125 424.73046875 C-937.3882605 424.13335083 -937.03823975 423.53623291 -936.6776123 422.92102051 C-935.61839564 421.11402103 -934.55919467 419.30701236 -933.5 417.5 C-929.57918401 410.81099073 -925.65832629 404.1220066 -921.73550415 397.43417358 C-912.20080226 381.1799288 -912.20080226 381.1799288 -902.69555664 364.90844727 C-901.57441401 362.98531233 -900.45251897 361.06261581 -899.32983398 359.14038086 C-896.42884238 354.17267792 -893.53593681 349.20052917 -890.65814209 344.21936035 C-889.11348171 341.54824528 -887.56371919 338.88011031 -886.01318359 336.21240234 C-885.26157301 334.91651092 -884.5121781 333.61933158 -883.76513672 332.32080078 C-882.72154517 330.50735433 -881.67023036 328.6985951 -880.6171875 326.890625 C-879.71395752 325.32876465 -879.71395752 325.32876465 -878.79248047 323.73535156 C-877.07930133 321.12101499 -875.29360034 319.10988504 -873 317 C-866.19876032 333.07929165 -859.47944206 349.1883725 -852.9375 365.375 C-852.63233459 366.13005829 -852.32716919 366.88511658 -852.01275635 367.66305542 C-851.70191101 368.43223297 -851.39106567 369.20141052 -851.07080078 369.99389648 C-850.42482908 371.59229501 -849.77883254 373.1906835 -849.1328125 374.7890625 C-848.64084885 376.00635796 -848.64084885 376.00635796 -848.13894653 377.24824524 C-843.88828506 387.75894049 -839.59942561 398.25405688 -835.3125 408.75 C-834.46020229 410.83707568 -833.60790738 412.92415251 -832.75561523 415.01123047 C-831.03076626 419.23476887 -829.30571287 423.45822373 -827.58056641 427.68164062 C-823.7984855 436.94118728 -820.01920414 446.20187645 -816.23974609 455.4624939 C-815.00762479 458.48131848 -813.77532542 461.50007032 -812.54296875 464.51879883 C-808.61416525 474.14290306 -804.68659688 483.76750721 -800.76248169 493.39352417 C-798.89616735 497.97149495 -797.02928377 502.54923349 -795.16235352 507.12695312 C-794.26721061 509.32231174 -793.37235077 511.51778579 -792.4777832 513.71337891 C-791.24240163 516.74540413 -790.00607117 519.77704079 -788.76953125 522.80859375 C-788.4007637 523.71439682 -788.03199615 524.62019989 -787.65205383 525.55345154 C-787.31546249 526.37813431 -786.97887115 527.20281708 -786.63208008 528.05249023 C-786.33932693 528.77073471 -786.04657379 529.48897919 -785.74494934 530.22898865 C-785.20792233 531.50569416 -784.61941504 532.76116991 -784 534 C-783.30946533 533.52711548 -783.30946533 533.52711548 -782.60498047 533.04467773 C-764.2010844 520.44313996 -745.77067174 507.88081645 -727.32446289 495.34130859 C-717.77749238 488.85063872 -708.23854012 482.3482571 -698.70166016 475.84277344 C-693.21592787 472.10101424 -687.72920311 468.36071046 -682.24267578 464.62011719 C-677.6966236 461.52064605 -673.15078966 458.42085597 -668.60546875 455.3203125 C-657.85095917 447.98486666 -647.08973429 440.65938587 -636.32373047 433.34082031 C-625.87553272 426.2374038 -615.43704638 419.11978682 -605 412 C-592.4477725 403.43731085 -579.88986605 394.88308804 -567.32373047 386.34082031 C-556.87553272 379.2374038 -546.43704638 372.11978682 -536 365 C-523.4477725 356.43731085 -510.88986605 347.88308804 -498.32373047 339.34082031 C-488.7770162 332.8502954 -479.23829774 326.34809177 -469.70166016 319.84277344 C-464.21592787 316.10101424 -458.72920311 312.36071046 -453.24267578 308.62011719 C-448.6966236 305.52064605 -444.15078966 302.42085597 -439.60546875 299.3203125 C-428.85095917 291.98486666 -418.08973429 284.65938587 -407.32373047 277.34082031 C-396.87553272 270.2374038 -386.43704638 263.11978682 -376 256 C-363.4477725 247.43731085 -350.88986605 238.88308804 -338.32373047 230.34082031 C-327.87553272 223.2374038 -317.43704638 216.11978682 -307 209 C-294.4477725 200.43731085 -281.88986605 191.88308804 -269.32373047 183.34082031 C-259.7770162 176.8502954 -250.23829774 170.34809177 -240.70166016 163.84277344 C-235.21592787 160.10101424 -229.72920311 156.36071046 -224.24267578 152.62011719 C-219.6966236 149.52064605 -215.15078966 146.42085597 -210.60546875 143.3203125 C-199.85095917 135.98486666 -189.08973429 128.65938587 -178.32373047 121.34082031 C-167.87553272 114.2374038 -157.43704638 107.11978682 -147 100 C-134.4477725 91.43731085 -121.88986605 82.88308804 -109.32373047 74.34082031 C-99.7770162 67.8502954 -90.23829774 61.34809177 -80.70166016 54.84277344 C-75.21592787 51.10101424 -69.72920311 47.36071046 -64.24267578 43.62011719 C-59.6966236 40.52064605 -55.15078966 37.42085597 -50.60546875 34.3203125 C-41.18288411 27.89323425 -31.75781462 21.46980669 -22.32778931 15.0536499 C-20.73877395 13.97238983 -19.15002221 12.89074238 -17.5612793 11.80908203 C-11.72805701 7.84144199 -5.8787839 3.89984207 0 0 Z " fill="#FF0000" transform="translate(2442,245)"/>
<path d="M0 0 C4.08106049 1.61684019 6.80659162 4.5424296 9.8125 7.625 C10.34875 8.16914551 10.885 8.71329102 11.4375 9.27392578 C15.459311 13.38216189 19.28641105 17.61121306 23 22 C23.89997941 23.03738085 24.80112757 24.07374833 25.703125 25.109375 C32.20997378 32.60191684 38.45222062 40.2542307 44.52099609 48.10449219 C46.07586458 50.09722889 47.65482755 52.06897868 49.23828125 54.0390625 C58.24541893 65.31701558 66.30170438 77.1147463 74.17822266 89.20410156 C75.81233149 91.71198341 77.45670475 94.21267931 79.10546875 96.7109375 C88.69966231 111.30907058 97.40237266 126.41287992 105.76757812 141.74365234 C106.56971952 143.21223214 107.37552361 144.67881924 108.18554688 146.14306641 C143.75184034 210.57368539 164.82474889 283.31631891 179 394 C179.0942627 395.09940918 179.18852539 396.19881836 179.28564453 397.33154297 C180.39505238 411.94040011 180.24727377 426.60742199 180.25 441.25 C180.25029457 441.9751543 180.25058914 442.70030861 180.25089264 443.44743729 C180.25237707 466.094368 179.85405014 488.50936797 177 511 C176.90054077 511.80387146 176.80108154 512.60774292 176.6986084 513.43597412 C170.59020529 562.75632719 159.54458719 610.14165588 143 657 C142.77332642 657.64477295 142.54665283 658.2895459 142.31311035 658.95385742 C119.04900018 724.99363605 83.06134183 787.38077132 38.43261719 841.26318359 C36.37117868 843.76234405 34.34583293 846.29045371 32.3125 848.8125 C28.4690485 853.50926826 24.42828252 857.99883965 20.3203125 862.46484375 C18.42718797 864.53325758 16.57748296 866.62405876 14.75 868.75 C3.3799424 881.80154499 -8.57148148 894.86046531 -21.7890625 906.0703125 C-24.24148228 908.21076368 -26.61003635 910.42764688 -28.98217773 912.65625 C-35.44660826 918.7266236 -42.07201071 924.45944623 -49 930 C-50.19158109 930.98128222 -51.38158596 931.96448045 -52.5703125 932.94921875 C-62.7622155 941.36828028 -73.26306439 949.290595 -84 957 C-84.86979492 957.62777344 -85.73958984 958.25554688 -86.63574219 958.90234375 C-155.70732691 1008.56393884 -235.20023509 1043.05091762 -415 1075 C-415.94746094 1075.05639648 -416.89492187 1075.11279297 -417.87109375 1075.17089844 C-443.15734874 1076.58968233 -468.72907882 1076.73854003 -494 1075 C-494 1074.34 -494 1073.68 -494 1073 C-493.29020996 1072.94054199 -492.58041992 1072.88108398 -491.84912109 1072.81982422 C-406.64146891 1065.47457019 -324.2575464 1040.93664303 -210 971 C-209.17274414 970.42185547 -208.34548828 969.84371094 -207.49316406 969.24804688 C-198.6498665 963.03884721 -190.10050158 956.63856932 -181.9453125 949.546875 C-179.15525257 947.13425024 -176.31269219 944.80998347 -173.4375 942.5 C-167.9205623 938.00649422 -162.69954688 933.22542874 -157.49414062 928.38085938 C-156.06443874 927.05955319 -154.61849722 925.75588424 -153.171875 924.453125 C-147.01291865 918.89996764 -141.06209019 913.16611632 -135.1875 907.3125 C-134.48214111 906.6117334 -133.77678223 905.9109668 -133.05004883 905.18896484 C-129.06118411 901.18833634 -125.25450278 897.08497716 -121.56567383 892.80639648 C-119.51688926 890.44261089 -117.38316088 888.16263116 -115.25 885.875 C-111.04057531 881.25923567 -107.13687101 876.4811446 -103.31738281 871.54003906 C-100.33072086 867.67801212 -97.2725002 863.88909424 -94.15722656 860.13012695 C-87.76712995 852.39856191 -81.93801667 844.42754542 -76.38574219 836.07714844 C-74.96042673 833.94068193 -73.5170796 831.81730116 -72.0703125 829.6953125 C-59.91027504 811.78130785 -49.10573164 793.14042297 -39 774 C-38.48856445 773.03980957 -37.97712891 772.07961914 -37.45019531 771.09033203 C-0.35736296 701.00683414 18.74630777 622.02518649 23 511 C22.97099609 509.51185791 22.97099609 509.51185791 22.94140625 507.99365234 C21.24738177 427.14135182 2.0019268 348.63547413 -35 272 C-40.54140777 276.61120202 -45.64652111 281.52939792 -50.71484375 286.65234375 C-51.52941544 287.47070206 -52.34398712 288.28906036 -53.1832428 289.13221741 C-56.6412044 292.60640667 -60.09317001 296.08653108 -63.5456543 299.56616211 C-66.07912305 302.11781423 -68.61566329 304.6663851 -71.15234375 307.21484375 C-71.9202977 307.99109604 -72.68825165 308.76734833 -73.47947693 309.56712341 C-77.52218167 313.62793299 -81.65686566 317.48435722 -85.99781799 321.22267151 C-89.68734029 324.49784483 -93.12593161 328.02469764 -96.59375 331.53125 C-97.78019104 332.72337097 -97.78019104 332.72337097 -98.99060059 333.9395752 C-101.49619523 336.45728432 -103.99850858 338.97821446 -106.5 341.5 C-109.7991168 344.82588189 -113.10164374 348.14832336 -116.40625 351.46875 C-117.14919312 352.21999146 -117.89213623 352.97123291 -118.65759277 353.74523926 C-122.00901796 357.11216193 -125.38600121 360.38557871 -128.98632812 363.48632812 C-133.48188991 367.36004295 -137.64079333 371.53302989 -141.8125 375.75 C-142.62565674 376.56694336 -143.43881348 377.38388672 -144.27661133 378.22558594 C-146.85353297 380.81462671 -149.42717625 383.40688737 -152 386 C-155.39287153 389.41962719 -158.78914657 392.83582149 -162.1875 396.25 C-162.95231689 397.02311523 -163.71713379 397.79623047 -164.50512695 398.59277344 C-168.5431593 402.64896918 -172.67409321 406.50066794 -177.01000977 410.23486328 C-180.61961863 413.43661424 -183.98403185 416.8825073 -187.375 420.3125 C-188.14376465 421.08505127 -188.9125293 421.85760254 -189.70458984 422.65356445 C-192.13885765 425.09994182 -194.56984106 427.5495414 -197 430 C-200.20536178 433.23213688 -203.41414073 436.46082535 -206.625 439.6875 C-207.706604 440.78155151 -207.706604 440.78155151 -208.81005859 441.89770508 C-212.10613677 445.20946429 -215.43154715 448.42296815 -218.97265625 451.47265625 C-223.47216587 455.35163879 -227.63626348 459.5284509 -231.8125 463.75 C-232.62565674 464.56694336 -233.43881348 465.38388672 -234.27661133 466.22558594 C-236.85353297 468.81462671 -239.42717625 471.40688737 -242 474 C-245.39287153 477.41962719 -248.78914657 480.83582149 -252.1875 484.25 C-252.95231689 485.02311523 -253.71713379 485.79623047 -254.50512695 486.59277344 C-258.53882488 490.64461526 -262.6654055 494.49124842 -266.99658203 498.22143555 C-270.6864191 501.49714394 -274.12551436 505.02427573 -277.59375 508.53125 C-278.78019104 509.72337097 -278.78019104 509.72337097 -279.99060059 510.9395752 C-282.49619523 513.45728432 -284.99850858 515.97821446 -287.5 518.5 C-290.7991168 521.82588189 -294.10164374 525.14832336 -297.40625 528.46875 C-298.14919312 529.21999146 -298.89213623 529.97123291 -299.65759277 530.74523926 C-303.63760273 534.74365336 -307.71599547 538.53196836 -311.9888916 542.21374512 C-315.68068969 545.49277889 -319.12291866 549.02165104 -322.59375 552.53125 C-323.38471069 553.32599731 -324.17567139 554.12074463 -324.99060059 554.9395752 C-327.49619523 557.45728432 -329.99850858 559.97821446 -332.5 562.5 C-335.7991168 565.82588189 -339.10164374 569.14832336 -342.40625 572.46875 C-343.14919312 573.21999146 -343.89213623 573.97123291 -344.65759277 574.74523926 C-348.63760273 578.74365336 -352.71599547 582.53196836 -356.9888916 586.21374512 C-360.68068969 589.49277889 -364.12291866 593.02165104 -367.59375 596.53125 C-368.38471069 597.32599731 -369.17567139 598.12074463 -369.99060059 598.9395752 C-372.49619523 601.45728432 -374.99850858 603.97821446 -377.5 606.5 C-380.7991168 609.82588189 -384.10164374 613.14832336 -387.40625 616.46875 C-388.14919312 617.21999146 -388.89213623 617.97123291 -389.65759277 618.74523926 C-393.00794835 622.11108737 -396.38389638 625.38410585 -399.98242188 628.48461914 C-404.49436073 632.37236168 -408.67936863 636.55351742 -412.875 640.77734375 C-413.68493408 641.58869278 -414.49486816 642.40004181 -415.3293457 643.23597717 C-417.88861015 645.80079139 -420.4443553 648.36907948 -423 650.9375 C-424.74586133 652.68838283 -426.49195287 654.43903613 -428.23828125 656.18945312 C-432.49485198 660.45698616 -436.74854716 664.72736866 -441 669 C-442.1127367 668.05280979 -443.22453275 667.10451446 -444.3359375 666.15576172 C-445.2647876 665.36381912 -445.2647876 665.36381912 -446.21240234 664.55587769 C-452.34841874 659.21525143 -457.87747106 653.23767536 -463.15625 647.0625 C-465.34796313 644.61075311 -467.66067104 642.31114427 -470 640 C-473.56400302 636.47893677 -476.90304168 632.86813992 -480.15625 629.0625 C-483.15350228 625.70964151 -486.39159634 622.60106244 -489.58984375 619.44140625 C-492.26854532 616.72797273 -494.74608118 613.89222977 -497.22265625 610.99609375 C-499.23268777 608.73867374 -501.34832953 606.62264287 -503.5 604.5 C-506.26560408 601.77170593 -508.91287031 599.01483166 -511.4375 596.0625 C-514.93936136 591.97564092 -518.74437268 588.23847915 -522.57421875 584.4609375 C-525.3105685 581.68493051 -527.84770435 578.7906914 -530.33203125 575.7890625 C-532.37253432 573.60041987 -534.63318559 571.82433573 -537 570 C-542.95733913 575.86929964 -548.86962636 581.70080178 -554.29296875 588.07421875 C-556.99221385 591.11936253 -559.92061063 593.92842701 -562.81640625 596.78515625 C-564.77974671 598.77659461 -566.62079669 600.81302578 -568.4375 602.9375 C-571.15619248 606.1103592 -574.02751675 609.06338382 -577 612 C-579.95183025 614.91626603 -582.80388859 617.84605835 -585.5 621 C-588.98452107 625.07623219 -592.78081981 628.79550873 -596.59375 632.5625 C-598.65449345 634.65000635 -600.59515626 636.77169223 -602.5 639 C-605.98452107 643.07623219 -609.78081981 646.79550873 -613.59375 650.5625 C-615.65449345 652.65000635 -617.59515626 654.77169223 -619.5 657 C-622.98452107 661.07623219 -626.78081981 664.79550873 -630.59375 668.5625 C-632.65449345 670.65000635 -634.59515626 672.77169223 -636.5 675 C-639.98332542 679.0748335 -643.77818708 682.79292992 -647.58984375 686.55859375 C-650.26854532 689.27202727 -652.74608118 692.10777023 -655.22265625 695.00390625 C-657.95099285 698.06803813 -660.89667908 700.90481832 -663.81640625 703.78515625 C-665.77974671 705.77659461 -667.62079669 707.81302578 -669.4375 709.9375 C-672.15619248 713.1103592 -675.02751675 716.06338382 -678 719 C-680.95183025 721.91626603 -683.80388859 724.84605835 -686.5 728 C-689.98452107 732.07623219 -693.78081981 735.79550873 -697.59375 739.5625 C-699.65449345 741.65000635 -701.59515626 743.77169223 -703.5 746 C-706.98332542 750.0748335 -710.77818708 753.79292992 -714.58984375 757.55859375 C-717.26854532 760.27202727 -719.74608118 763.10777023 -722.22265625 766.00390625 C-724.95099285 769.06803813 -727.89667908 771.90481832 -730.81640625 774.78515625 C-732.77974671 776.77659461 -734.62079669 778.81302578 -736.4375 780.9375 C-739.15619248 784.1103592 -742.02751675 787.06338382 -745 790 C-747.95183025 792.91626603 -750.80388859 795.84605835 -753.5 799 C-756.98452107 803.07623219 -760.78081981 806.79550873 -764.59375 810.5625 C-766.65449345 812.65000635 -768.59515626 814.77169223 -770.5 817 C-773.98452107 821.07623219 -777.78081981 824.79550873 -781.59375 828.5625 C-783.65449345 830.65000635 -785.59515626 832.77169223 -787.5 835 C-790.98332542 839.0748335 -794.77818708 842.79292992 -798.58984375 846.55859375 C-801.26854532 849.27202727 -803.74608118 852.10777023 -806.22265625 855.00390625 C-808.95099285 858.06803813 -811.89667908 860.90481832 -814.81640625 863.78515625 C-816.77974671 865.77659461 -818.62079669 867.81302578 -820.4375 869.9375 C-823.15619248 873.1103592 -826.02751675 876.06338382 -829 879 C-831.95183025 881.91626603 -834.80388859 884.84605835 -837.5 888 C-840.98452107 892.07623219 -844.78081981 895.79550873 -848.59375 899.5625 C-850.65449345 901.65000635 -852.59515626 903.77169223 -854.5 906 C-857.98452107 910.07623219 -861.78081981 913.79550873 -865.59375 917.5625 C-867.65449345 919.65000635 -869.59515626 921.77169223 -871.5 924 C-874.98332542 928.0748335 -878.77818708 931.79292992 -882.58984375 935.55859375 C-885.26854532 938.27202727 -887.74608118 941.10777023 -890.22265625 944.00390625 C-892.95099285 947.06803813 -895.89667908 949.90481832 -898.81640625 952.78515625 C-900.77974671 954.77659461 -902.62079669 956.81302578 -904.4375 958.9375 C-907.15619248 962.1103592 -910.02751675 965.06338382 -913 968 C-915.95183025 970.91626603 -918.80388859 973.84605835 -921.5 977 C-924.98452107 981.07623219 -928.78081981 984.79550873 -932.59375 988.5625 C-934.65449345 990.65000635 -936.59515626 992.77169223 -938.5 995 C-941.98452107 999.07623219 -945.78081981 1002.79550873 -949.59375 1006.5625 C-951.65449345 1008.65000635 -953.59515626 1010.77169223 -955.5 1013 C-958.98332542 1017.0748335 -962.77818708 1020.79292992 -966.58984375 1024.55859375 C-969.26854532 1027.27202727 -971.74608118 1030.10777023 -974.22265625 1033.00390625 C-976.95099285 1036.06803813 -979.89667908 1038.90481832 -982.81640625 1041.78515625 C-984.77974671 1043.77659461 -986.62079669 1045.81302578 -988.4375 1047.9375 C-991.15619248 1051.1103592 -994.02751675 1054.06338382 -997 1057 C-999.95183025 1059.91626603 -1002.80388859 1062.84605835 -1005.5 1066 C-1008.98452107 1070.07623219 -1012.78081981 1073.79550873 -1016.59375 1077.5625 C-1019.24195339 1080.24509564 -1021.68791221 1083.04803106 -1024.1328125 1085.9140625 C-1027.25126822 1089.39786031 -1030.61567754 1092.63402975 -1033.9609375 1095.8984375 C-1036.04126091 1097.83096046 -1036.04126091 1097.83096046 -1037 1100 C-1037.66 1099.67 -1038.32 1099.34 -1039 1099 C-1030.19543292 1084.91947847 -1021.14961273 1071.00420426 -1012.04248047 1057.11816406 C-1003.30655987 1043.78142274 -994.65560722 1030.38894441 -986 1017 C-977.46588561 1003.79898704 -968.90455108 990.61584846 -960.33398438 977.43847656 C-954.26698349 968.10983889 -948.2052502 958.77792354 -942.16357422 949.43286133 C-938.06502248 943.09543682 -933.9507996 936.76824821 -929.8359375 930.44140625 C-926.38365615 925.13209204 -922.93833272 919.81835675 -919.5 914.5 C-914.95694887 907.4728829 -910.39815885 900.45608931 -905.8359375 893.44140625 C-902.38365609 888.13209195 -898.93835954 882.81833946 -895.5 877.5 C-888.79739622 867.13355034 -882.06453341 856.78679434 -875.33398438 846.43847656 C-869.26698349 837.10983889 -863.2052502 827.77792354 -857.16357422 818.43286133 C-853.61751127 812.94972786 -850.06015754 807.47399039 -846.5 802 C-840.65277062 793.00896018 -834.82273792 784.00691451 -829 775 C-820.46588561 761.79898704 -811.90455108 748.61584846 -803.33398438 735.43847656 C-797.26698349 726.10983889 -791.2052502 716.77792354 -785.16357422 707.43286133 C-781.06502248 701.09543682 -776.9507996 694.76824821 -772.8359375 688.44140625 C-769.38365615 683.13209204 -765.93833272 677.81835675 -762.5 672.5 C-757.95694887 665.4728829 -753.39815885 658.45608931 -748.8359375 651.44140625 C-745.38365609 646.13209195 -741.93835954 640.81833946 -738.5 635.5 C-731.79739622 625.13355034 -725.06453341 614.78679434 -718.33398438 604.43847656 C-712.26698349 595.10983889 -706.2052502 585.77792354 -700.16357422 576.43286133 C-696.06502248 570.09543682 -691.9507996 563.76824821 -687.8359375 557.44140625 C-684.38365615 552.13209204 -680.93833272 546.81835675 -677.5 541.5 C-672.95694887 534.4728829 -668.39815885 527.45608931 -663.8359375 520.44140625 C-660.38365615 515.13209204 -656.93833272 509.81835675 -653.5 504.5 C-648.95694887 497.4728829 -644.39815885 490.45608931 -639.8359375 483.44140625 C-636.38365615 478.13209204 -632.93833272 472.81835675 -629.5 467.5 C-624.95694887 460.4728829 -620.39815885 453.45608931 -615.8359375 446.44140625 C-612.38365615 441.13209204 -608.93833272 435.81835675 -605.5 430.5 C-600.95694887 423.4728829 -596.39815885 416.45608931 -591.8359375 409.44140625 C-588.38365594 404.13209172 -584.93843591 398.81829024 -581.5 393.5 C-576.35398119 385.54328147 -571.2065821 377.58749277 -566.02734375 369.65234375 C-564.16718292 366.80195673 -562.32409195 363.94246371 -560.50390625 361.06640625 C-559.80136719 359.97199219 -559.09882812 358.87757813 -558.375 357.75 C-557.48941406 356.35007812 -557.48941406 356.35007812 -556.5859375 354.921875 C-556.06257813 354.28765625 -555.53921875 353.6534375 -555 353 C-554.01 353 -553.02 353 -552 353 C-550.05021518 355.43799385 -548.29952381 357.85320203 -546.5625 360.4375 C-545.4807338 362.00929704 -544.3986951 363.58090655 -543.31640625 365.15234375 C-542.76484863 365.9604248 -542.21329102 366.76850586 -541.64501953 367.60107422 C-539.13507231 371.26132079 -536.56697812 374.87964211 -534 378.5 C-532.99967355 379.91643617 -531.99967466 381.33310374 -531 382.75 C-530.505 383.45125 -530.01 384.1525 -529.5 384.875 C-489 442.25 -489 442.25 -487.49853516 444.37719727 C-486.50357148 445.78664809 -485.50845554 447.19599145 -484.51318359 448.60522461 C-481.93483639 452.25640425 -479.35956529 455.90969887 -476.7890625 459.56640625 C-476.25925781 460.31921875 -475.72945312 461.07203125 -475.18359375 461.84765625 C-474.18259365 463.27013008 -473.18251403 464.69325236 -472.18359375 466.1171875 C-468.877221 470.81279249 -465.46860965 475.42304574 -462 480 C-459.13409251 477.15912732 -456.27172303 474.31473864 -453.41235352 471.46728516 C-452.44257727 470.50248541 -451.4718993 469.53859105 -450.50024414 468.57568359 C-443.84348039 461.99749509 -443.84348039 461.99749509 -437.56640625 455.0625 C-432.22739977 448.82744204 -426.23507824 443.18088163 -420.39746094 437.41796875 C-413.25743361 430.42045297 -413.25743361 430.42045297 -406.53125 423.03125 C-401.04021848 416.59623969 -394.83905348 410.7859377 -388.82470703 404.84521484 C-383.32452251 399.40634068 -377.89017389 393.9833878 -372.86914062 388.09179688 C-367.98219569 382.62270803 -362.61559068 377.5693217 -357.39746094 372.41796875 C-350.24290471 365.40390807 -350.24290471 365.40390807 -343.5 358 C-338.19196532 351.77944604 -332.21283328 346.15892134 -326.39746094 340.41796875 C-319.24290471 333.40390807 -319.24290471 333.40390807 -312.5 326 C-307.19196532 319.77944604 -301.21283328 314.15892134 -295.39746094 308.41796875 C-288.24290471 301.40390807 -288.24290471 301.40390807 -281.5 294 C-276.19196532 287.77944604 -270.21283328 282.15892134 -264.39746094 276.41796875 C-257.25743361 269.42045297 -257.25743361 269.42045297 -250.53125 262.03125 C-245.04021848 255.59623969 -238.83905348 249.7859377 -232.82470703 243.84521484 C-227.32452251 238.40634068 -221.89017389 232.9833878 -216.86914062 227.09179688 C-211.98219569 221.62270803 -206.61559068 216.5693217 -201.39746094 211.41796875 C-194.24290471 204.40390807 -194.24290471 204.40390807 -187.5 197 C-182.19196532 190.77944604 -176.21283328 185.15892134 -170.39746094 179.41796875 C-163.24290471 172.40390807 -163.24290471 172.40390807 -156.5 165 C-151.19196532 158.77944604 -145.21283328 153.15892134 -139.39746094 147.41796875 C-133.90038892 141.98493374 -128.47043808 136.55630637 -123.44921875 130.671875 C-121.41579669 128.32604038 -119.22337468 126.16486482 -117 124 C-114.06881809 121.10408042 -111.23596826 118.19757429 -108.5625 115.0625 C-105.25653882 111.19382202 -101.66855322 107.63935695 -98.04931641 104.06884766 C-94.80015827 100.84649591 -91.77563666 97.50668184 -88.80859375 94.02734375 C-85.82471996 90.68256946 -82.59380268 87.58664843 -79.40625 84.4375 C-77.34550655 82.34999365 -75.40484374 80.22830777 -73.5 78 C-70.01547893 73.92376781 -66.21918019 70.20449127 -62.40625 66.4375 C-60.34550655 64.34999365 -58.40484374 62.22830777 -56.5 60 C-53.01547893 55.92376781 -49.21918019 52.20449127 -45.40625 48.4375 C-43.34550655 46.34999365 -41.40484374 44.22830777 -39.5 42 C-36.80388859 38.84605835 -33.95183025 35.91626603 -31 33 C-28.06881809 30.10408042 -25.23596826 27.19757429 -22.5625 24.0625 C-19.69827839 20.71075131 -16.63669676 17.59440185 -13.5 14.5 C-9.11511877 10.16343702 -4.99279733 5.69593145 -1 1 C-0.67 0.67 -0.34 0.34 0 0 Z " fill="#38B6FF" transform="translate(2080,738)"/>
<path d="M0 0 C22.11 0 44.22 0 67 0 C72.72613726 6.29875098 78.20963971 12.40836345 83.52734375 18.9921875 C86.41680275 22.50701125 89.38678693 25.94413715 92.375 29.375 C96.47016475 34.07731744 100.54311694 38.79518885 104.5625 43.5625 C108.33573019 48.03683484 112.12651924 52.49526005 115.9375 56.9375 C116.43427246 57.51677246 116.93104492 58.09604492 117.44287109 58.69287109 C119.99523989 61.66774646 122.5507747 64.63985771 125.109375 67.609375 C129.6983591 72.94120634 134.25877834 78.28329671 138.6875 83.75 C142.22872411 88.11431944 145.93655309 92.28542905 149.72265625 96.4375 C152.98727981 100.11090147 156.07021984 103.92316537 159.15234375 107.75 C160.95605161 110.02119749 160.95605161 110.02119749 163 112 C163.33 75.04 163.66 38.08 164 0 C187.1 0 210.2 0 234 0 C234 77.55 234 155.1 234 235 C211.89 235 189.78 235 167 235 C154.16512059 221.09554731 154.16512059 221.09554731 148.2109375 213.6796875 C145.8906505 210.86746685 143.46928866 208.18202737 141 205.5 C136.90648909 201.05272888 133.07557501 196.45282537 129.28125 191.75 C126.93281032 188.91900422 124.49090098 186.20616402 122 183.5 C117.90648909 179.05272888 114.07557501 174.45282537 110.28125 169.75 C107.93281032 166.91900422 105.49090098 164.20616402 103 161.5 C98.90771925 157.05406536 95.07756886 152.4559628 91.28515625 147.75390625 C88.2059869 144.04311242 84.94683438 140.5158487 81.65234375 136.99609375 C77.93953628 132.80209769 74.49910329 128.37387911 71 124 C70.67 160.63 70.34 197.26 70 235 C46.9 235 23.8 235 0 235 C0 157.45 0 79.9 0 0 Z " fill="#38B6FF" transform="translate(2682,2025)"/>
<path d="M0 0 C38.300625 -0.12375 38.300625 -0.12375 77.375 -0.25 C89.42394775 -0.30462402 89.42394775 -0.30462402 101.71630859 -0.36035156 C111.60083008 -0.37841797 111.60083008 -0.37841797 116.24282837 -0.3817749 C119.4529855 -0.3854693 122.66287226 -0.40032834 125.87295532 -0.42230225 C150.89082038 -0.5860392 173.33634254 -0.18114419 195 14 C195.70125 14.45117188 196.4025 14.90234375 197.125 15.3671875 C210.90479643 24.89462488 219.50617132 42.07636601 222.59423828 58.23266602 C223.28854486 62.96790374 223.32848095 67.65919708 223.3125 72.4375 C223.32861328 73.39720703 223.34472656 74.35691406 223.36132812 75.34570312 C223.37340848 93.28502754 215.44724541 108.63296919 203.4921875 121.57421875 C197.45055821 127.45486419 187.88543069 136 179 136 C189.11430844 156.52805365 199.56857407 176.91201002 210.60986328 196.95727539 C214.54127272 204.110986 218.35309954 211.32349912 222.125 218.5625 C222.6821167 219.62839355 223.2392334 220.69428711 223.81323242 221.79248047 C224.33119385 222.79037598 224.84915527 223.78827148 225.3828125 224.81640625 C225.84059082 225.69756104 226.29836914 226.57871582 226.77001953 227.48657227 C227.9682867 229.93519483 228.98755355 232.46888387 230 235 C201.62 235 173.24 235 144 235 C139.936875 226.729375 135.87375 218.45875 131.6875 209.9375 C130.43026123 207.37991943 129.17302246 204.82233887 127.87768555 202.18725586 C122.04350081 190.30809226 116.2480664 178.41265988 110.56632996 166.45970154 C110.15361343 165.59200638 109.74089691 164.72431122 109.31567383 163.83032227 C108.96289871 163.08645767 108.6101236 162.34259308 108.24665833 161.57618713 C106.5324421 158.03380372 104.75994418 154.51988836 103 151 C94.09 150.67 85.18 150.34 76 150 C76 178.05 76 206.1 76 235 C50.92 235 25.84 235 0 235 C0 157.45 0 79.9 0 0 Z M76 54 C76 68.19 76 82.38 76 97 C82.81372932 97.046056 89.62691256 97.08583902 96.44067383 97.10986328 C98.75579667 97.11988476 101.07090698 97.13350557 103.38598633 97.15087891 C106.72480374 97.17529702 110.06345294 97.18652195 113.40234375 97.1953125 C114.42770737 97.20563507 115.45307098 97.21595764 116.50950623 97.22659302 C125.97694992 97.22805187 133.3469191 96.59814958 140.33984375 89.85546875 C144.47402831 85.23490954 146 80.15170096 146 74 C145.34351329 68.54295426 143.57657016 64.23541204 140 60 C134.16826769 55.47643405 129.13332632 53.86815552 121.75073242 53.88647461 C120.21971138 53.88658791 120.21971138 53.88658791 118.65776062 53.88670349 C117.5680043 53.89186478 116.47824799 53.89702606 115.35546875 53.90234375 C113.66808342 53.90446617 113.66808342 53.90446617 111.9466095 53.90663147 C108.36021241 53.91222069 104.77387816 53.92477128 101.1875 53.9375 C98.75325611 53.94251639 96.31901124 53.94707906 93.88476562 53.95117188 C87.9231335 53.9613349 81.96163695 53.98091258 76 54 Z " fill="#38B6FF" transform="translate(1640,2025)"/>
<path d="M0 0 C67.32 0 134.64 0 204 0 C204 18.81 204 37.62 204 57 C162.09 57 120.18 57 77 57 C77 67.56 77 78.12 77 89 C112.97 89 148.94 89 186 89 C186 106.82 186 124.64 186 143 C150.03 143 114.06 143 77 143 C77 154.55 77 166.1 77 178 C119.9 178 162.8 178 207 178 C207 196.81 207 215.62 207 235 C138.69 235 70.38 235 0 235 C0 157.45 0 79.9 0 0 Z " fill="#38B6FF" transform="translate(408,2025)"/>
<path d="M0 0 C67.32 0 134.64 0 204 0 C204 18.81 204 37.62 204 57 C161.76 57 119.52 57 76 57 C76 67.56 76 78.12 76 89 C112.3 89 148.6 89 186 89 C186 106.49 186 123.98 186 142 C185 143 185 143 183.17465878 143.12304783 C181.97033624 143.12166514 181.97033624 143.12166514 180.74168396 143.12025452 C179.36390778 143.12231651 179.36390778 143.12231651 177.95829773 143.12442017 C176.43484489 143.11902725 176.43484489 143.11902725 174.88061523 143.11352539 C173.81733002 143.11367142 172.7540448 143.11381744 171.65853882 143.1139679 C168.12520342 143.11326825 164.59192 143.10547343 161.05859375 143.09765625 C158.61621632 143.09579225 156.17383851 143.09436827 153.73146057 143.09336853 C147.28865536 143.08954189 140.84587252 143.07971037 134.40307617 143.06866455 C127.83447574 143.05845356 121.2658717 143.05387158 114.69726562 143.04882812 C101.79816565 143.03808823 88.89908818 143.02049025 76 143 C76 154.55 76 166.1 76 178 C118.9 178 161.8 178 206 178 C206 196.81 206 215.62 206 235 C138.02 235 70.04 235 0 235 C0 157.45 0 79.9 0 0 Z " fill="#38B6FF" transform="translate(882,2025)"/>
<path d="M0 0 C66.99 0 133.98 0 203 0 C203 18.81 203 37.62 203 57 C161.09 57 119.18 57 76 57 C76 67.56 76 78.12 76 89 C111.97 89 147.94 89 185 89 C185 106.82 185 124.64 185 143 C149.03 143 113.06 143 76 143 C76 154.55 76 166.1 76 178 C118.9 178 161.8 178 206 178 C206 196.81 206 215.62 206 235 C138.02 235 70.04 235 0 235 C0 157.45 0 79.9 0 0 Z " fill="#38B6FF" transform="translate(2436,2025)"/>
<path d="M0 0 C1.27423828 1.03060547 1.27423828 1.03060547 2.57421875 2.08203125 C20.65779874 17.45168959 29.13670065 38.85499694 32 62 C32 66.95 32 71.9 32 77 C7.91 77 -16.18 77 -41 77 C-41.66 72.05 -42.32 67.1 -43 62 C-46.34939548 51.59294977 -51.49782728 43.70486918 -61 38 C-72.51654656 32.55039571 -86.16097383 32.47472903 -98.28125 35.9609375 C-107.79810465 39.5981262 -114.26400197 46.08111235 -118.6875 55.125 C-123.99131925 68.02587422 -124.47699125 80.09038406 -124.39111328 93.86499023 C-124.37504969 96.92802594 -124.3910202 99.98973895 -124.41015625 103.05273438 C-124.4264232 116.59452127 -124.04149948 129.44397289 -117.4375 141.625 C-116.83808594 142.75164063 -116.23867187 143.87828125 -115.62109375 145.0390625 C-115.08613281 146.01617188 -114.55117187 146.99328125 -114 148 C-113.68160156 148.75023438 -113.36320312 149.50046875 -113.03515625 150.2734375 C-111.66972984 152.5508657 -110.43745238 152.97838953 -108 154 C-107.06285156 154.48597656 -106.12570313 154.97195312 -105.16015625 155.47265625 C-104.13792969 155.99730469 -103.11570312 156.52195312 -102.0625 157.0625 C-101.04285156 157.58972656 -100.02320312 158.11695312 -98.97265625 158.66015625 C-93.28013415 161.22590537 -87.89357999 161.18269282 -81.75 161.1875 C-80.94175781 161.19974609 -80.13351563 161.21199219 -79.30078125 161.22460938 C-68.26256624 161.25110109 -58.35067944 158.57592003 -49.88671875 151.14453125 C-41.00943706 141.62093783 -40.33658687 132.24065891 -38 119 C-14.9 119 8.2 119 32 119 C32 145.56442174 26.7827635 169.91418056 7.7109375 189.3203125 C6.81632812 190.20460938 5.92171875 191.08890625 5 192 C3.90558594 193.10988281 3.90558594 193.10988281 2.7890625 194.2421875 C-15.77865967 211.98160979 -44.54406005 219.05529678 -69.57421875 219.203125 C-70.37203262 219.21018463 -71.1698465 219.21724426 -71.99183655 219.22451782 C-109.68126472 219.48219593 -145.01657611 215.35008656 -173.5 188.125 C-195.8264179 165.79197274 -203.22415675 132.82503597 -203.32958984 102.21508789 C-203.32576894 100.74755251 -203.3200366 99.280021 -203.3125 97.8125 C-203.30926727 96.67021439 -203.30926727 96.67021439 -203.30596924 95.50485229 C-203.16840824 65.08280044 -197.51843182 33.0849077 -176 10 C-175.26523438 9.175 -174.53046875 8.35 -173.7734375 7.5 C-133.72762814 -35.28509925 -44.27051244 -36.60160477 0 0 Z " fill="#38B6FF" transform="translate(2231,2045)"/>
<path d="M0 0 C1.68041539 1.56873399 3.34728234 3.15211184 5 4.75 C5.76441406 5.47703125 6.52882813 6.2040625 7.31640625 6.953125 C24.97505505 25.01101282 30 50.39284746 30 74.75 C5.91 74.75 -18.18 74.75 -43 74.75 C-43.99 68.81 -44.98 62.87 -46 56.75 C-51.12503606 45.31722725 -56.3750303 38.45426789 -68 33.75 C-80.10768458 29.50168962 -94.07743228 30.86560629 -105.71875 35.93359375 C-115.64263534 41.20939424 -120.6753894 50.30602124 -124 60.75 C-130.79305696 84.23924515 -130.50902623 118.65587532 -119.53515625 140.69140625 C-114.66377314 149.1160335 -108.33586855 154.56762252 -99.0625 157.6875 C-85.25141157 160.82193142 -70.58696314 159.73121584 -58.0078125 153.1953125 C-50.19592786 148.26260486 -45.70700943 141.55163522 -43 132.75 C-42.10665812 128.7323149 -41.65125443 124.73454135 -41.2890625 120.63671875 C-41 117.75 -41 117.75 -40 116.75 C-37.82194281 116.65570658 -35.6407872 116.63257462 -33.46069336 116.63647461 C-32.77779739 116.63632858 -32.09490143 116.63618256 -31.39131165 116.6360321 C-29.12412386 116.63673124 -26.85701726 116.6445236 -24.58984375 116.65234375 C-23.02185613 116.65420793 -21.45386793 116.65563183 -19.88587952 116.65663147 C-15.75123497 116.66045666 -11.61662534 116.67028694 -7.48199463 116.68133545 C-3.26599602 116.69154956 0.95000822 116.69612909 5.16601562 116.70117188 C13.44402647 116.71190921 21.7220089 116.72898564 30 116.75 C30.01309114 118.48077371 30.02234504 120.21157665 30.0300293 121.94238281 C30.03560349 122.90621887 30.04117767 123.87005493 30.04692078 124.86309814 C29.65938669 148.70696788 20.95048522 171.99749318 4.02734375 188.91796875 C-8.11667686 200.5150655 -23.79833021 208.59279882 -40 212.75 C-41.12535156 213.04414795 -41.12535156 213.04414795 -42.2734375 213.34423828 C-67.30087303 219.53528878 -97.85786962 219.51623126 -123 213.75 C-123.73186523 213.58371094 -124.46373047 213.41742187 -125.21777344 213.24609375 C-140.80661869 209.52954786 -155.60416031 202.99514195 -168 192.75 C-168.83789062 192.07453125 -169.67578125 191.3990625 -170.5390625 190.703125 C-193.66951738 171.08162458 -202.88199868 141.75182886 -205.3984375 112.38671875 C-208.02513722 76.97325087 -203.8989622 37.73770031 -180 9.75 C-179.57847656 9.18539062 -179.15695312 8.62078125 -178.72265625 8.0390625 C-162.28282733 -13.24776765 -133.11967434 -22.0419136 -107.68457031 -25.57128906 C-70.38938938 -29.85509124 -29.22825674 -25.51886025 0 0 Z " fill="#38B6FF" transform="translate(1324,2047.25)"/>
<path d="M0 0 C75.9 0 151.8 0 230 0 C230 20.13 230 40.26 230 61 C204.92 61 179.84 61 154 61 C154 118.42 154 175.84 154 235 C128.59 235 103.18 235 77 235 C77 177.58 77 120.16 77 61 C51.59 61 26.18 61 0 61 C0 40.87 0 20.74 0 0 Z " fill="#38B6FF" transform="translate(1376,2025)"/>
<path d="M0 0 C25.08 0 50.16 0 76 0 C76 57.42 76 114.84 76 174 C115.6 174 155.2 174 196 174 C196 194.13 196 214.26 196 235 C131.32 235 66.64 235 0 235 C0 157.45 0 79.9 0 0 Z " fill="#38B6FF" transform="translate(655,2025)"/>
<path d="M0 0 C125.20359281 0 125.20359281 0 155 24 C155.9796875 24.77214844 156.959375 25.54429687 157.96875 26.33984375 C177.68817222 42.91308465 186.49198217 70.42093541 188.80371094 95.1550293 C189.95051067 111.77649361 189.97042441 128.75486785 186 145 C185.83371094 145.69947754 185.66742187 146.39895508 185.49609375 147.11962891 C178.569869 175.3568211 162.56687489 198.32069632 138 214 C130.46549606 218.43077952 122.43664706 221.38885731 114.0625 223.8125 C113.06319458 224.10519775 113.06319458 224.10519775 112.04370117 224.40380859 C77.90203924 233.52381401 27.18391163 228 0 228 C0 152.76 0 77.52 0 0 Z M30 24 C30 83.4 30 142.8 30 204 C73.26757477 206.55061238 73.26757477 206.55061238 115 196 C115.99515625 195.50757812 116.9903125 195.01515625 118.015625 194.5078125 C135.70640344 185.02736969 146.47625827 168.70180702 152.41845703 149.97265625 C161.04299812 120.71728597 159.91075234 86.15199261 145.6875 58.87890625 C135.84424468 42.0861304 120.57911916 31.51929103 102 26.5625 C78.58995499 20.73611603 53.62181266 24 30 24 Z " fill="#FF0000" transform="translate(1902,2545)"/>
<path d="M0 0 C25.41 0 50.82 0 77 0 C77 77.55 77 155.1 77 235 C51.59 235 26.18 235 0 235 C0 157.45 0 79.9 0 0 Z " fill="#38B6FF" transform="translate(2306,2025)"/>
<path d="M0 0 C25.41 0 50.82 0 77 0 C77 77.55 77 155.1 77 235 C51.59 235 26.18 235 0 235 C0 157.45 0 79.9 0 0 Z " fill="#38B6FF" transform="translate(1908,2025)"/>
<path d="M0 0 C124.77227723 0 124.77227723 0 146.7734375 19.578125 C158.43891218 31.79909847 161.50196643 49.03726147 161.42431641 65.25317383 C161.22459451 72.66500086 159.98788804 79.16913754 157 86 C156.649375 86.80308594 156.29875 87.60617188 155.9375 88.43359375 C149.09710748 102.13813016 137.39575071 109.67966668 124 116 C124.66 116.495 125.32 116.99 126 117.5 C145.3853172 133.654431 148.99710955 154.08891945 151.671875 177.94921875 C154.31877106 201.40723426 154.31877106 201.40723426 162.984375 223.1875 C164 225 164 225 165 228 C154.44 228 143.88 228 133 228 C127.59103971 215.01849531 124.69553537 203.26788887 122.78125 189.515625 C122.62209106 188.37475182 122.62209106 188.37475182 122.4597168 187.21083069 C121.92784753 183.36812044 121.41388796 179.52405062 120.92578125 175.67553711 C118.22781074 154.96483509 118.22781074 154.96483509 106.859375 138.12109375 C96.14284901 130.55755925 83.71244427 130.86578112 71.08984375 130.68359375 C70.0177063 130.66494263 68.94556885 130.6462915 67.84094238 130.6270752 C63.87320427 130.55927821 59.90534362 130.49881174 55.9375 130.4375 C47.048125 130.293125 38.15875 130.14875 29 130 C29 162.34 29 194.68 29 228 C19.43 228 9.86 228 0 228 C0 152.76 0 77.52 0 0 Z M29 24 C29 51.06 29 78.12 29 106 C44.96375 106.0928125 44.96375 106.0928125 61.25 106.1875 C64.58641602 106.21481201 67.92283203 106.24212402 71.36035156 106.27026367 C74.03710571 106.27903447 76.71386388 106.286677 79.390625 106.29296875 C80.06913513 106.30080887 80.74764526 106.30864899 81.44671631 106.31672668 C95.65405222 106.47240721 108.3634568 104.79978469 119.2578125 94.9609375 C128.61621041 85.18814559 130.42817022 74.27613784 130.2109375 61.1484375 C129.82313495 50.70649467 126.81918675 41.59392791 119.18359375 34.25390625 C106.66416843 24.11190715 90.82078345 23.67841105 75.38671875 23.8046875 C74.2006604 23.80670166 73.01460205 23.80871582 71.79260254 23.81079102 C67.42419485 23.82113905 63.05584293 23.84906013 58.6875 23.875 C43.9921875 23.936875 43.9921875 23.936875 29 24 Z " fill="#FF0000" transform="translate(1080,2545)"/>
<path d="M0 0 C12.87 0 25.74 0 39 0 C43.49959516 11.24898789 43.49959516 11.24898789 45.26391602 16.4128418 C45.86332253 18.16078789 45.86332253 18.16078789 46.47483826 19.94404602 C46.89693069 21.18325302 47.31902313 22.42246002 47.75390625 23.69921875 C48.21122921 25.0355393 48.66880113 26.37177468 49.12660217 27.70793152 C50.10032452 30.55128566 51.07253718 33.39514943 52.04351807 36.23944092 C53.58605224 40.75771834 55.1322034 45.27475241 56.67919922 49.79150391 C56.93920841 50.55065975 57.19921761 51.3098156 57.46710587 52.09197617 C57.99391446 53.63006854 58.52073816 55.16815575 59.0475769 56.70623779 C59.84183814 59.02535456 60.63578923 61.34457732 61.4296875 63.66381836 C66.13582654 77.40975789 70.8744699 91.1443363 75.625 104.875 C80.34861371 118.52974517 85.06752093 132.1860423 89.7626667 145.8506031 C90.45942779 147.87841873 91.15632134 149.9061888 91.85325623 151.9339447 C92.08270463 152.60154595 92.31215303 153.26914721 92.54855442 153.9569788 C93.01117931 155.30302569 93.47380735 156.64907151 93.93643856 157.99511623 C95.07516403 161.30843176 96.2136092 164.62184307 97.35147095 167.93545532 C103.48135308 185.79421318 103.48135308 185.79421318 109.76953125 203.59765625 C110.04038544 204.35404388 110.31123962 205.11043152 110.59030151 205.88973999 C111.76888541 209.17472914 112.95668651 212.45571691 114.15820312 215.73242188 C114.54556641 216.80169922 114.93292969 217.87097656 115.33203125 218.97265625 C115.82280151 220.30695679 115.82280151 220.30695679 116.32348633 221.66821289 C117 224 117 224 117 228 C106.77 228 96.54 228 86 228 C81.49944206 216.74860514 81.49944206 216.74860514 79.64990234 211.19262695 C79.23622406 209.95466873 78.82254578 208.71671051 78.39633179 207.4412384 C77.95942539 206.12362193 77.52262994 204.80596865 77.0859375 203.48828125 C76.62584034 202.10679424 76.16551909 200.72538185 75.70498657 199.34403992 C74.74677425 196.46784989 73.79056008 193.59100647 72.8359375 190.71362305 C71.61746212 187.04115601 70.39500994 183.37002833 69.17119408 179.69933796 C68.22285155 176.85403752 67.27607775 174.00821713 66.32982254 171.16222191 C65.87967865 169.80862876 65.42918221 168.45515279 64.97831345 167.10180092 C64.34780804 165.20809712 63.71951804 163.31365614 63.09130859 161.41918945 C62.73475189 160.34570755 62.37819519 159.27222565 62.01083374 158.16621399 C60.93595785 154.79940206 59.97092761 151.39824665 59 148 C31.61 148 4.22 148 -24 148 C-24.99 151.63 -25.98 155.26 -27 159 C-27.7934993 161.53516095 -28.60907028 164.06357471 -29.4519043 166.58276367 C-29.7890596 167.59466766 -29.7890596 167.59466766 -30.13302612 168.62701416 C-30.86057629 170.8082956 -31.59233822 172.9881369 -32.32421875 175.16796875 C-32.83586075 176.69915598 -33.34723406 178.23043302 -33.85835266 179.76179504 C-35.19220688 183.75578933 -36.52966272 187.74856809 -37.86791992 191.74108887 C-39.47935595 196.55115582 -41.08623036 201.36274837 -42.6938858 206.1740799 C-45.12579963 213.45054948 -47.56343309 220.72507977 -50 228 C-60.56 228 -71.12 228 -82 228 C-76.27252777 210.48067319 -70.13691894 193.14840738 -63.8409729 175.82839966 C-60.35758116 166.2417684 -56.90573176 156.64380535 -53.45321655 147.04602051 C-51.91186038 142.76128208 -50.369778 138.47680515 -48.82771301 134.19232178 C-48.0452778 132.01838444 -47.26287843 129.84443419 -46.48051453 127.67047119 C-43.87330372 120.42583136 -41.265073 113.18155942 -38.65625 105.9375 C-37.93383441 103.93131636 -37.21142231 101.92513146 -36.48901367 99.91894531 C-35.03898271 95.89213469 -33.58855537 91.86546711 -32.13793945 87.83886719 C-27.95672582 76.22985051 -23.78614167 64.61707682 -19.6250515 53.00083542 C-18.03552052 48.56428334 -16.444694 44.12819559 -14.85388279 39.69210243 C-13.29681487 35.34954989 -11.74198629 31.00620376 -10.18875599 26.66227722 C-9.22083824 23.95693339 -8.25084587 21.25233682 -7.28029823 18.54793549 C-6.60972259 16.67736797 -5.94169371 14.80588809 -5.27372742 12.93438721 C-4.87079971 11.81280212 -4.46787201 10.69121704 -4.05273438 9.53564453 C-3.70287476 8.55838409 -3.35301514 7.58112366 -2.99255371 6.57424927 C-2 4 -2 4 0 0 Z M18 26 C14.14216881 37.0366768 10.29007066 48.07533954 6.44425964 59.11621094 C4.47282296 64.77555699 2.49947377 70.43422554 0.52294922 76.09179688 C-1.56200738 82.06034794 -3.6421587 88.03055565 -5.71929932 94.00183105 C-6.53174565 96.33484117 -7.34583422 98.66728003 -8.16156006 100.99914551 C-9.30864682 104.27919266 -10.44991878 107.56120824 -11.58984375 110.84375 C-11.93600235 111.82933899 -12.28216095 112.81492798 -12.6388092 113.8303833 C-13.10751686 115.18568146 -13.10751686 115.18568146 -13.58569336 116.56835938 C-13.86021835 117.35577515 -14.13474335 118.14319092 -14.41758728 118.95446777 C-15.13692036 121.12641583 -15.13692036 121.12641583 -15 124 C6.78 124 28.56 124 51 124 C48.77463553 115.70156181 48.77463553 115.70156181 46.2734375 107.51733398 C45.81595375 106.11990463 45.81595375 106.11990463 45.34922791 104.69424438 C45.0277327 103.72135468 44.70623749 102.74846497 44.375 101.74609375 C44.03130875 100.69811615 43.68761749 99.65013855 43.33351135 98.57040405 C42.22498064 95.19189558 41.11268737 91.81464156 40 88.4375 C38.46628245 83.77382003 36.93403673 79.10965776 35.40234375 74.4453125 C35.02432114 73.29490982 34.64629852 72.14450714 34.25682068 70.95924377 C31.97366292 64.00108854 29.72123052 57.03408557 27.50390625 50.0546875 C27.11783707 48.84332878 27.11783707 48.84332878 26.72396851 47.60749817 C24.78516835 41.52378726 24.78516835 41.52378726 23.8815918 38.63742065 C23.26208658 36.65853199 22.63392683 34.68259195 22.00390625 32.70703125 C21.66174072 31.6188208 21.3195752 30.53061035 20.96704102 29.40942383 C20.24821158 26.84765206 20.24821158 26.84765206 18 26 Z " fill="#FF0000" transform="translate(1373,2545)"/>
<path d="M0 0 C49.17 0 98.34 0 149 0 C149 7.92 149 15.84 149 24 C109.4 24 69.8 24 29 24 C29 49.74 29 75.48 29 102 C65.3 102 101.6 102 139 102 C139 109.92 139 117.84 139 126 C102.7 126 66.4 126 29 126 C29 151.74 29 177.48 29 204 C69.59 204 110.18 204 152 204 C152 211.92 152 219.84 152 228 C101.84 228 51.68 228 0 228 C0 152.76 0 77.52 0 0 Z " fill="#FF0000" transform="translate(2167,2545)"/>
<path d="M0 0 C121.98389021 0 121.98389021 0 142.75 19.25 C156.39721552 33.94197843 160.81116498 52.81737848 160.30859375 72.3359375 C159.37602642 90.90215351 151.61918745 106.46666668 138 119 C134.49346538 121.69923922 130.89927206 123.91590631 127 126 C126.1853125 126.45890625 125.370625 126.9178125 124.53125 127.390625 C105.98279506 136.89384574 84.84085471 135.51225319 64.63671875 135.2746582 C60.72079232 135.23311319 56.80475699 135.21533918 52.88867188 135.1953125 C45.2588246 135.15291691 37.6295045 135.08500948 30 135 C30.00222061 136.1503624 30.00444122 137.30072479 30.00672913 138.48594666 C30.02695922 149.30200059 30.0419715 160.1180507 30.05181217 170.93411922 C30.05704134 176.49539411 30.06413958 182.05665379 30.07543945 187.61791992 C30.08626715 192.98007419 30.09227658 198.34221378 30.09487724 203.70437813 C30.09673171 205.75500278 30.10035272 207.8056266 30.10573006 209.85624504 C30.11293893 212.71790203 30.11399101 215.57949757 30.11352539 218.44116211 C30.11712067 219.29783478 30.12071594 220.15450745 30.12442017 221.03713989 C30.11405216 226.88594784 30.11405216 226.88594784 29 228 C19.43 228 9.86 228 0 228 C0 152.76 0 77.52 0 0 Z M29 25 C29 53.38 29 81.76 29 111 C37.9925 111.020625 46.985 111.04125 56.25 111.0625 C60.47151855 111.07615601 60.47151855 111.07615601 64.77832031 111.09008789 C67.04492139 111.09301244 69.311523 111.09555972 71.578125 111.09765625 C72.72587402 111.10277222 73.87362305 111.10788818 75.05615234 111.11315918 C90.61372441 111.11481495 106.15212495 110.44119742 118 99 C126.88542105 89.59678052 129.29192068 77.64786105 129.15234375 65.0859375 C128.59664987 53.82957427 125.25533145 43.30542322 117.40234375 35.04296875 C106.1078576 25.43806427 93.03677389 24.69533632 78.90234375 24.8046875 C76.99926453 24.80770874 76.99926453 24.80770874 75.05773926 24.81079102 C70.35095568 24.82119834 65.64422394 24.84912063 60.9375 24.875 C50.398125 24.91625 39.85875 24.9575 29 25 Z " fill="#FF0000" transform="translate(1556,2545)"/>
<path d="M0 0 C9.57 0 19.14 0 29 0 C30.86808518 1.86808518 30.1255227 4.55347832 30.13374341 7.03954315 C30.13039732 8.35318218 30.13039732 8.35318218 30.12698364 9.69335938 C30.12854363 10.61639107 30.13010362 11.53942276 30.13171089 12.49042511 C30.1357251 15.60821593 30.13252962 18.72595875 30.12939453 21.84375 C30.13074839 24.06884795 30.13252823 26.29394567 30.13470459 28.51904297 C30.13928081 34.5808466 30.13748859 40.64263331 30.1343255 46.70443726 C30.13180287 53.03277636 30.13413917 59.36111397 30.13571167 65.68945312 C30.13765053 77.0008837 30.13453273 88.31230563 30.12945233 99.62373447 C30.12498429 109.88978515 30.12576022 120.15582453 30.13037109 130.421875 C30.13571678 142.32962974 30.13771774 154.23737761 30.13475883 166.14513397 C30.13319561 172.45361096 30.13300352 178.76208015 30.13629532 185.07055664 C30.13917286 190.99986551 30.1372005 196.92915293 30.13140106 202.85845947 C30.13007283 205.04144251 30.13046863 207.22442733 30.13266373 209.40740967 C30.13537278 212.37384481 30.13199713 215.34021001 30.12698364 218.30664062 C30.12921436 219.18239998 30.13144509 220.05815933 30.13374341 220.96045685 C30.11414982 226.88585018 30.11414982 226.88585018 29 228 C19.43 228 9.86 228 0 228 C0 152.76 0 77.52 0 0 Z " fill="#FF0000" transform="translate(1784,2545)"/>
</svg>
